# xmcd
#
# Track frame offsets: 
#        150
#        8920
#        20551
#        34843
#        51632
#        64584
#        75199
#        87437
#        104126
#        116165
#        134908
#        147072
#        158515
#        173328
#        194573
#        203483
#        216759
#        229937
#        259697
#
# Disc length: 4076 seconds
#
# Revision: 0
# Processed by: cddbd v1.4PL0 Copyright (c) Steve Scherf et al.
# Submitted via: ExactAudioCopy v0.90b3
#
DISCID=0b0fea13
DTITLE=The Hickory Project - Polaris
DYEAR=2001
DGENRE=Bluegrass
TTITLE0=Icy Roads
TTITLE1=Blues of Your Love
TTITLE2=Nanty Glo
TTITLE3=He Rode All the Way to Texas
TTITLE4=Bucky's Dream
TTITLE5=Windshear
TTITLE6=Different Story
TTITLE7=Unresolved
TTITLE8=January Thaw
TTITLE9=Troubled Mind
TTITLE10=Round Top
TTITLE11=Ellie May
TTITLE12=Waltz of the Morning
TTITLE13=Walls of Time
TTITLE14=Run A Muck
TTITLE15=Whiskey Before Breakfast
TTITLE16=Hard Cider
TTITLE17=Polaris
TTITLE18=data track
EXTD=Sue Cunningham (Fiddle, Vocals]\nAnthony Hannigan (Mandolin, Voca
EXTD=ls]\nDavid Cavage (Banjo, Vocals]\nSteve Belcher (Bass]\n
EXTT0=
EXTT1=
EXTT2=
EXTT3=
EXTT4=
EXTT5=
EXTT6=
EXTT7=
EXTT8=
EXTT9=
EXTT10=
EXTT11=
EXTT12=
EXTT13=
EXTT14=
EXTT15=
EXTT16=
EXTT17=
EXTT18=
PLAYORDER=
